<svg version="1.1" id="Layer_1" xmlns="http://www.w3.org/2000/svg" xmlns:xlink="http://www.w3.org/1999/xlink" x="0px" y="0px"
	 width="100%" viewBox="0 0 2000 1500" enable-background="new 0 0 2000 1500" xml:space="preserve">
<path fill="#528265" opacity="1.000000" stroke="none" 
	d="
M1349.000000,1501.000000 
	C899.333496,1501.000000 450.166931,1501.000000 1.000301,1501.000000 
	C1.000201,1001.000305 1.000201,501.000580 1.000100,1.000637 
	C667.666199,1.000424 1334.332397,1.000424 2000.998901,1.000212 
	C2000.999268,500.999359 2000.999268,1000.998718 2000.999634,1500.999023 
	C1783.833374,1501.000000 1566.666626,1501.000000 1349.000000,1501.000000 
M1091.933228,709.437805 
	C1101.718018,695.256409 1109.588745,679.830872 1110.798584,662.694824 
	C1112.589478,637.326721 1112.243774,611.807678 1112.783813,586.352417 
	C1112.789429,586.085327 1112.470459,585.811340 1112.219849,585.406128 
	C1038.046509,585.406128 963.802795,585.406128 889.288940,585.406128 
	C889.197266,586.962158 889.055664,588.254333 889.054871,589.546692 
	C889.043640,607.546204 888.517517,625.564758 889.158325,643.541565 
	C890.871094,691.589355 913.292114,726.913818 956.400574,748.211853 
	C972.836792,756.332214 990.531189,761.602112 1009.386292,758.931213 
	C1043.540894,754.093079 1071.203369,738.183228 1091.933228,709.437805 
M994.803650,1029.639771 
	C984.769348,1022.684875 972.154846,1024.620728 965.037903,1034.453369 
	C970.455933,1037.616821 971.395508,1042.867676 971.393433,1048.560181 
	C971.381104,1082.389771 971.395203,1116.219238 971.370300,1150.048828 
	C971.369446,1151.188599 971.048035,1152.328125 970.730408,1154.432861 
	C965.145752,1145.375244 960.155396,1137.308105 955.191040,1129.225098 
	C938.113770,1101.419678 921.043884,1073.609863 903.974915,1045.799438 
	C899.653076,1038.757935 894.644714,1032.399170 887.057556,1028.560059 
	C875.783936,1022.855957 861.472778,1025.371826 854.655518,1034.531982 
	C860.224060,1037.863281 861.013367,1043.310913 861.008484,1049.184326 
	C860.974060,1090.179810 860.959961,1131.175415 861.043274,1172.170654 
	C861.051025,1175.968506 861.379150,1179.862183 862.266907,1183.540283 
	C863.836304,1190.043335 867.989929,1194.502197 874.724365,1195.738647 
	C883.589355,1197.366455 891.201477,1195.072876 896.986084,1187.428223 
	C891.539185,1183.808472 890.687866,1178.404907 890.700134,1172.488892 
	C890.766418,1140.492676 890.726196,1108.496094 890.742676,1076.499634 
	C890.743408,1075.116211 890.940735,1073.732666 891.129517,1071.262207 
	C892.758606,1073.692627 893.788391,1075.129272 894.716553,1076.628784 
	C912.942871,1106.073608 931.025696,1135.608765 949.465942,1164.918945 
	C954.140503,1172.349121 959.272644,1179.746704 965.460266,1185.882935 
	C969.846313,1190.232666 976.026123,1193.625366 982.006653,1195.309082 
	C990.281494,1197.638550 998.799316,1196.749023 1004.095825,1191.170044 
	C1002.925537,1183.642212 1001.227417,1177.675049 1001.192749,1171.698242 
	C1000.954895,1130.704102 1001.060974,1089.708008 1001.068115,1048.712524 
	C1001.069275,1041.922119 1000.322998,1035.379517 994.803650,1029.639771 
M974.497498,565.673035 
	C959.079346,565.673035 943.661255,565.673035 928.005310,565.673035 
	C928.005310,558.719910 927.959290,552.394836 928.050903,546.071716 
	C928.066101,545.025330 928.373352,543.645325 929.077942,543.008057 
	C931.488037,540.828247 934.135498,538.910950 936.789978,536.816467 
	C941.192444,541.269043 947.173523,542.950928 953.833740,539.803955 
	C959.055542,537.336670 961.971558,532.887024 961.951965,527.041626 
	C961.923889,518.660278 956.853516,514.164673 949.237671,512.080994 
	C956.180481,497.493927 950.640076,489.278503 933.189148,487.745300 
	C930.952759,478.296082 926.000854,473.374725 918.594421,473.240662 
	C911.011353,473.103394 906.247864,477.645447 903.080627,488.182922 
	C896.653992,487.333466 890.836304,488.492920 886.844666,494.263580 
	C882.750305,500.182861 883.949524,506.134552 887.381104,512.104065 
	C879.948425,514.220032 875.110107,518.297302 874.650940,526.029053 
	C874.304688,531.859558 876.732544,536.496521 881.841003,539.328430 
	C888.900757,543.242065 895.236206,541.390991 900.273193,536.390747 
	C912.919617,543.706726 907.455017,555.201721 908.659119,565.955322 
	C895.146851,565.955322 882.591553,565.955322 870.096497,565.955322 
	C870.096497,569.440369 870.096497,572.333374 870.096497,575.175659 
	C957.599731,575.175659 1044.691406,575.175659 1132.023926,575.175659 
	C1132.023926,572.003845 1132.023926,569.095276 1132.023926,565.815430 
	C1125.756104,565.815430 1119.763916,565.607483 1113.796143,565.898010 
	C1110.527222,566.057190 1108.680786,564.821960 1106.878784,562.244141 
	C1098.387573,550.096741 1089.706177,538.082214 1081.087769,526.023804 
	C1075.600830,518.346619 1070.105225,510.675537 1064.387451,502.685699 
	C1063.163696,504.233154 1062.199585,505.351685 1061.344604,506.548157 
	C1048.466431,524.568665 1035.601318,542.598572 1022.736389,560.628418 
	C1018.668335,566.329712 1015.192505,567.345825 1007.843445,564.757935 
	C1019.581848,548.297607 1031.267090,531.911804 1043.089966,515.333130 
	C1037.242554,506.300049 1031.444092,497.342468 1025.339600,487.912140 
	C1016.675293,501.270996 1008.449280,513.975220 1000.201294,526.665161 
	C991.856995,539.503296 983.490906,552.327271 974.497498,565.673035 
M1113.554932,1176.831909 
	C1117.771606,1185.868042 1125.424561,1190.460327 1134.609497,1192.993042 
	C1147.806030,1196.632324 1161.319946,1196.805176 1174.790771,1195.787598 
	C1192.925171,1194.417725 1209.765747,1189.094116 1223.748901,1176.860840 
	C1246.057861,1157.343994 1252.605713,1131.931519 1251.166138,1103.440186 
	C1249.225464,1065.036621 1226.193481,1036.853516 1188.969116,1028.324707 
	C1168.288574,1023.586365 1147.581909,1025.187988 1127.056641,1029.698730 
	C1119.852783,1031.282104 1112.785767,1033.487915 1104.991333,1035.588623 
	C1110.282349,1044.098267 1110.356567,1052.576538 1110.331421,1061.103638 
	C1110.236328,1093.258179 1110.037109,1125.414062 1110.277710,1157.566406 
	C1110.324097,1163.772583 1112.174194,1169.965088 1113.554932,1176.831909 
M820.017273,1080.376831 
	C820.590515,1063.473633 814.697388,1049.449951 800.194580,1040.353394 
	C793.127930,1035.920898 785.162598,1032.108643 777.089783,1030.250977 
	C756.115845,1025.424683 734.666321,1027.712036 713.404541,1028.239258 
	C707.684937,1028.380981 702.818481,1031.824707 699.017700,1036.846924 
	C705.018311,1040.707153 705.939209,1046.601196 705.877747,1053.021606 
	C705.764465,1064.845703 705.836914,1076.671753 705.847656,1088.496948 
	C705.874451,1117.976318 705.794495,1147.456543 706.006348,1176.934570 
	C706.078003,1186.909546 710.641907,1193.263306 718.260437,1195.478149 
	C727.091370,1198.045410 736.172119,1194.880127 741.590454,1187.236084 
	C736.533691,1184.265625 735.216797,1179.383911 735.160461,1173.996094 
	C735.076904,1166.002441 735.132690,1158.007324 735.130981,1150.012817 
	C735.129517,1143.234985 735.130615,1136.457153 735.130615,1129.125122 
	C739.137878,1129.125122 742.620850,1129.415405 746.033508,1129.049805 
	C750.063049,1128.617920 752.298157,1130.292114 754.405945,1133.597046 
	C763.264587,1147.487305 772.258057,1161.297241 781.502197,1174.933105 
	C785.124084,1180.275635 789.012024,1185.640381 793.686829,1190.027466 
	C805.921631,1201.509399 825.951782,1197.106445 830.233276,1183.359375 
	C825.146240,1179.024902 819.478821,1175.658813 815.802979,1170.789307 
	C804.780640,1156.187744 794.534363,1141.000366 784.007141,1126.026123 
	C783.872314,1125.834473 784.025024,1125.440796 784.042725,1125.155029 
	C810.248535,1111.934937 818.836792,1101.461914 820.017273,1080.376831 
M1316.408569,1033.884399 
	C1301.751587,1041.729614 1291.982544,1054.014893 1286.266724,1069.220337 
	C1275.847412,1096.938477 1275.787354,1125.070068 1286.365967,1152.701660 
	C1294.220337,1173.217285 1308.402710,1188.081909 1330.436279,1193.282837 
	C1339.231201,1195.359009 1348.564941,1196.141724 1357.619629,1195.946655 
	C1387.296265,1195.307251 1408.359863,1181.082886 1419.109497,1153.329224 
	C1429.928101,1125.397949 1429.752441,1096.887207 1419.500854,1068.828979 
	C1412.817993,1050.538696 1400.757935,1036.399536 1381.709473,1030.155640 
	C1359.895874,1023.005127 1338.142700,1023.510254 1316.408569,1033.884399 
M1677.202759,1176.713501 
	C1671.176025,1174.516235 1664.640625,1173.164062 1659.245239,1169.917358 
	C1651.718750,1165.388306 1650.537598,1156.969971 1655.044312,1149.364014 
	C1655.798706,1148.090698 1656.669312,1146.885986 1657.469604,1145.674805 
	C1650.840210,1138.962036 1640.825806,1137.265503 1632.575806,1141.372192 
	C1624.837402,1145.224365 1621.370361,1152.634644 1622.734253,1162.360962 
	C1624.324585,1173.700806 1631.696167,1180.671265 1640.995850,1185.916260 
	C1658.696167,1195.898804 1677.903442,1197.704834 1697.644653,1195.302856 
	C1713.326416,1193.394775 1727.064453,1187.058105 1738.116211,1175.541626 
	C1753.055054,1159.974121 1753.184692,1136.165527 1737.561646,1121.399048 
	C1730.776367,1114.985596 1722.609009,1109.758667 1714.399414,1105.199219 
	C1704.683838,1099.803467 1694.106445,1095.984253 1684.166504,1090.959717 
	C1677.215698,1087.446045 1670.286499,1083.615601 1664.088013,1078.944214 
	C1650.726807,1068.874634 1652.793579,1053.077637 1668.588257,1047.608276 
	C1676.023682,1045.033569 1684.640991,1044.319580 1692.543091,1044.964600 
	C1709.591919,1046.356201 1715.522705,1054.274536 1713.736328,1071.534668 
	C1717.181152,1072.618896 1720.704590,1074.270020 1724.387817,1074.791016 
	C1738.292114,1076.757446 1746.806641,1067.484863 1744.111816,1053.662720 
	C1742.603027,1045.924072 1737.651855,1040.676270 1731.446777,1036.429443 
	C1720.660645,1029.047363 1708.380615,1026.305664 1695.610107,1025.398682 
	C1676.153320,1024.016724 1657.665649,1026.846069 1641.700684,1039.102417 
	C1621.464111,1054.638184 1620.403442,1081.073975 1639.750122,1097.574951 
	C1645.998169,1102.903809 1653.321899,1107.195679 1660.666870,1110.960083 
	C1670.717773,1116.111206 1681.480591,1119.875854 1691.517822,1125.050537 
	C1699.148071,1128.984253 1706.810913,1133.402222 1713.228394,1139.012573 
	C1722.891113,1147.459717 1722.088013,1160.519409 1712.074585,1168.514893 
	C1708.524414,1171.349609 1704.183472,1173.961670 1699.830933,1174.850098 
	C1692.746338,1176.296265 1685.355469,1176.241455 1677.202759,1176.713501 
M394.794373,1077.499878 
	C394.841431,1105.659424 394.610901,1133.823120 395.035339,1161.977051 
	C395.307892,1180.056519 405.279327,1191.681396 423.264984,1192.795044 
	C445.500397,1194.171997 467.862732,1193.729736 490.166595,1193.568848 
	C494.448090,1193.538086 499.107330,1191.879395 502.910492,1189.752563 
	C513.941345,1183.583740 514.603577,1168.084595 506.012939,1162.112793 
	C497.862946,1164.938843 490.872070,1169.020752 483.628754,1169.533081 
	C468.043945,1170.635376 452.325684,1170.102295 436.669220,1169.827881 
	C429.380676,1169.700073 425.123383,1166.187134 424.776215,1158.909424 
	C424.137115,1145.512451 424.593750,1132.063354 424.593750,1118.125488 
	C434.473328,1118.125488 444.269440,1117.891846 454.048920,1118.194824 
	C462.850128,1118.467529 471.662231,1119.063843 480.413788,1120.025024 
	C486.026184,1120.641479 487.983124,1119.980713 490.234436,1114.670166 
	C493.878052,1106.075317 490.174042,1098.373779 481.190826,1096.073364 
	C478.946320,1095.498657 476.612061,1095.023193 474.308472,1094.971069 
	C459.491272,1094.635864 444.671143,1094.427856 429.851837,1094.186768 
	C428.081665,1094.158081 426.310608,1094.182983 424.393372,1094.182983 
	C424.393372,1079.798950 424.393372,1066.065552 424.393372,1052.157959 
	C425.473114,1052.048096 426.275543,1051.894897 427.077881,1051.895630 
	C446.239777,1051.912109 465.407227,1051.697510 484.560181,1052.126953 
	C490.274933,1052.255005 495.920746,1054.401611 501.657745,1055.190063 
	C503.569794,1055.452759 506.308136,1055.018677 507.572845,1053.782104 
	C514.045837,1047.453369 512.629211,1036.255127 504.583527,1032.110474 
	C500.407990,1029.959473 495.461517,1028.262695 490.836792,1028.195923 
	C462.185272,1027.781982 433.525879,1027.797119 404.869843,1027.890991 
	C398.033051,1027.913330 392.488342,1031.207520 387.806702,1036.925049 
	C394.424591,1040.715942 394.854553,1046.995850 394.807190,1053.505127 
	C394.751434,1061.169556 394.794312,1068.834839 394.794373,1077.499878 
M535.107788,1190.301147 
	C547.335938,1200.484131 560.703918,1197.711914 567.388062,1183.310669 
	C570.321838,1176.989746 572.686218,1170.380859 574.931213,1163.774292 
	C576.022156,1160.563965 577.580078,1159.445312 581.011719,1159.487305 
	C596.504822,1159.677490 612.005859,1159.769531 627.494629,1159.447144 
	C632.109802,1159.351318 634.076660,1160.783813 635.636292,1165.123291 
	C638.545044,1173.216187 641.799927,1181.285767 645.903870,1188.824341 
	C652.233154,1200.450806 677.566162,1197.778320 680.841003,1185.876343 
	C673.436707,1181.222412 669.970398,1173.729614 667.135681,1165.793335 
	C653.431396,1127.425293 639.793152,1089.033325 625.911987,1050.729370 
	C623.605896,1044.365967 620.385620,1038.307983 617.283691,1032.265015 
	C612.601379,1023.143005 590.001038,1022.888855 585.459106,1034.031128 
	C587.239990,1036.604370 589.369629,1038.876099 590.493164,1041.567627 
	C591.344055,1043.606201 591.700806,1046.485229 590.933899,1048.471436 
	C575.058777,1089.582520 559.087280,1130.657593 542.832764,1171.619751 
	C540.927063,1176.422241 537.645752,1180.859253 534.251953,1184.823486 
	C532.189636,1187.232544 533.471680,1188.200928 535.107788,1190.301147 
M1550.511963,1050.053833 
	C1554.441040,1055.013672 1555.579224,1060.697998 1555.438599,1066.922607 
	C1555.402588,1068.516602 1556.840454,1071.061279 1558.222900,1071.614014 
	C1564.904175,1074.285278 1571.849976,1074.552490 1578.709839,1072.059692 
	C1586.295166,1069.303345 1589.741943,1063.949829 1589.355103,1055.924194 
	C1588.926758,1047.035645 1583.680054,1041.254395 1576.799805,1036.617798 
	C1564.771484,1028.511963 1551.236084,1025.832397 1536.978760,1025.609619 
	C1499.936401,1025.030884 1471.054077,1046.193970 1460.782715,1081.796509 
	C1455.363037,1100.581909 1455.305298,1119.679077 1459.224731,1138.670654 
	C1470.531006,1193.454102 1535.748901,1215.680420 1578.707153,1179.533936 
	C1583.607422,1175.410767 1587.858765,1170.778320 1589.447021,1164.292725 
	C1590.993164,1157.979248 1588.850098,1152.402344 1583.667358,1149.288818 
	C1583.378662,1149.441040 1583.046875,1149.544678 1582.809814,1149.755005 
	C1582.188232,1150.306641 1581.614258,1150.911499 1581.010010,1151.483276 
	C1570.289551,1161.627319 1557.836792,1168.300293 1542.975464,1169.544312 
	C1520.146729,1171.455322 1498.574707,1162.117920 1491.468506,1136.564819 
	C1485.853027,1116.372192 1486.286255,1095.956421 1493.146484,1076.066650 
	C1497.628784,1063.071655 1505.496338,1052.198853 1518.546143,1046.706177 
	C1529.202759,1042.220703 1540.190674,1041.209229 1550.511963,1050.053833 
M259.648132,1103.499268 
	C259.733307,1123.992676 259.442108,1144.496582 260.019867,1164.976074 
	C260.503448,1182.115601 268.951477,1191.641357 285.906036,1192.845947 
	C303.642426,1194.106079 321.510529,1193.847778 339.314697,1193.656982 
	C346.645691,1193.578613 353.314331,1190.649048 357.851990,1184.314453 
	C363.052917,1177.053833 362.026855,1167.754517 355.265686,1162.885010 
	C348.300751,1170.867554 338.909058,1172.130859 328.970459,1171.949219 
	C321.474701,1171.812256 313.974335,1171.944092 306.476196,1171.916870 
	C293.496918,1171.869751 289.328705,1167.869385 289.210052,1154.969604 
	C289.085968,1141.473877 289.192352,1127.976074 289.175018,1114.479248 
	C289.145020,1091.152100 289.250702,1067.823120 288.983459,1044.498535 
	C288.872284,1034.798340 284.257507,1028.500977 276.841919,1026.368164 
	C267.749268,1023.752869 258.751465,1026.745483 253.181015,1034.443726 
	C258.991028,1037.845093 259.651184,1043.536621 259.648865,1049.511475 
	C259.642059,1067.174072 259.647491,1084.836548 259.648132,1103.499268 
M944.649963,309.290802 
	C942.757629,310.072906 940.865295,310.855011 939.587585,311.383087 
	C940.513245,315.411194 941.422668,318.536407 941.928894,321.725616 
	C943.570007,332.065247 944.910767,342.455566 946.750305,352.757965 
	C947.093079,354.677673 948.905457,357.232330 950.591553,357.773102 
	C952.435242,358.364471 954.919617,356.958344 956.111572,356.668884 
	C954.227783,344.815948 952.531311,334.141693 950.834900,323.467438 
	C952.873169,324.380066 954.117554,325.649750 955.266296,327.000732 
	C960.977905,333.717560 966.571167,340.538177 972.411865,347.140228 
	C974.358704,349.340729 976.655151,351.646667 979.276245,352.707031 
	C981.445862,353.584747 984.418030,353.018890 986.821838,352.339630 
	C987.326233,352.197083 987.018005,348.756378 986.870728,346.851959 
	C986.730225,345.035706 986.290710,343.244080 986.017883,341.436310 
	C984.455566,331.083557 983.088257,320.696899 981.280701,310.387360 
	C980.159180,303.990326 976.040283,302.930695 971.826782,306.748718 
	C973.675537,318.342804 975.441223,329.415649 977.206848,340.488525 
	C968.928284,332.404755 961.988098,323.726532 954.563965,315.484161 
	C952.166016,312.821869 948.496643,311.304718 944.649963,309.290802 
M979.808472,879.035583 
	C978.469849,889.118835 977.131287,899.202148 975.792725,909.285400 
	C973.780334,907.731018 972.981750,906.151794 972.283508,904.529358 
	C968.341919,895.371033 964.558594,886.141663 960.452148,877.058228 
	C957.652405,870.865295 954.066650,869.545166 948.520569,871.763550 
	C948.171570,875.689941 947.997253,879.455566 947.474976,883.172241 
	C946.132812,892.723999 944.455688,902.232971 943.341125,911.809021 
	C943.092896,913.942200 943.975586,917.041321 945.494324,918.301086 
	C946.894897,919.462708 949.849426,918.750793 951.088135,918.812622 
	C952.712341,907.191162 954.176086,896.717896 955.639832,886.244690 
	C957.538879,887.884644 958.304871,889.510132 959.032959,891.152344 
	C962.939148,899.962402 966.755249,908.813660 970.773010,917.572449 
	C972.537720,921.419556 975.421753,924.239563 980.013489,923.869690 
	C981.085999,923.783264 982.747437,922.187744 982.916321,921.097290 
	C984.289246,912.234558 985.388000,903.329041 986.535889,894.432007 
	C987.152527,889.652710 988.150696,884.854187 988.038513,880.086426 
	C987.999146,878.413452 985.424194,876.204346 983.512329,875.358765 
	C981.969788,874.676514 978.939880,874.706848 979.808472,879.035583 
M709.559814,638.088928 
	C720.787537,641.434937 731.130920,636.193542 734.060913,625.673279 
	C736.904419,615.463623 730.957031,605.176208 720.650269,602.476318 
	C711.655457,600.120117 702.219727,604.982910 698.748413,613.763550 
	C695.022583,623.188049 698.903320,632.465637 709.559814,638.088928 
M1288.733032,639.051880 
	C1300.755615,636.241333 1307.223877,625.743225 1303.678467,614.795044 
	C1300.339966,604.485229 1288.682251,599.173279 1278.625122,603.379272 
	C1270.555054,606.754211 1265.763916,615.708496 1267.541016,624.094421 
	C1269.624756,633.927368 1276.978271,639.341064 1288.733032,639.051880 
M897.681702,369.815491 
	C904.434021,372.753845 907.885437,371.445068 909.229309,365.769501 
	C902.965454,362.385681 896.783508,359.046143 890.297607,355.542358 
	C891.414673,354.029816 892.112610,353.128174 892.764648,352.194489 
	C895.892639,347.715820 896.350464,342.982758 893.977722,338.047699 
	C891.563965,333.027283 887.393921,330.672363 881.952454,330.622955 
	C873.233826,330.543762 866.060425,334.823853 858.955383,339.148712 
	C858.253540,339.575897 857.996887,340.734497 857.867920,340.962585 
	C859.440125,343.567474 860.897583,345.558533 861.921631,347.751923 
	C866.490051,357.536743 870.787842,367.451569 875.548462,377.140045 
	C876.499878,379.076385 878.932007,381.224731 880.892212,381.451202 
	C882.709290,381.661163 884.808350,379.430786 886.011719,378.726501 
	C883.025574,372.654541 880.522949,367.565674 878.020264,362.476776 
	C878.283386,361.942261 878.546448,361.407745 878.809509,360.873230 
	C880.936462,361.270020 883.307434,361.200043 885.140808,362.158447 
	C889.254578,364.308899 893.101318,366.970306 897.681702,369.815491 
M1080.689209,353.999420 
	C1079.245239,358.034729 1079.171387,361.813324 1082.608765,365.017120 
	C1089.597534,371.531067 1103.878662,373.586792 1112.131226,369.237946 
	C1120.826416,364.655884 1126.895386,352.567932 1125.480225,342.649353 
	C1123.517090,328.889221 1107.700317,318.605591 1092.460083,320.627960 
	C1088.542725,331.709290 1084.733154,342.485809 1080.689209,353.999420 
M868.964661,893.836365 
	C870.233826,893.836365 871.502991,893.836365 871.751038,893.836365 
	C874.235229,887.938110 876.382080,882.840881 878.528870,877.743652 
	C879.148499,877.585632 879.768066,877.427673 880.387695,877.269653 
	C881.464355,879.090027 883.075012,880.791199 883.513306,882.754150 
	C884.635315,887.778564 884.988159,892.974731 886.109070,897.999451 
	C887.423523,903.891785 891.725769,905.618774 896.571594,902.806396 
	C895.671143,899.414429 894.695435,896.115784 893.934998,892.768372 
	C893.164612,889.376953 892.607056,885.937134 891.913208,882.292175 
	C893.664429,882.152588 895.148315,882.116333 896.606750,881.904480 
	C904.684021,880.731018 910.030457,872.667480 907.862610,864.982117 
	C905.672241,857.216858 889.862915,847.418030 881.867798,848.577332 
	C880.513855,852.110535 879.376770,855.521973 877.920898,858.791504 
	C873.996704,867.604309 869.931030,876.354065 865.933167,885.134155 
	C864.378418,888.548767 864.203125,891.612915 868.964661,893.836365 
M1120.656006,877.834900 
	C1118.041992,868.266968 1113.180908,860.596680 1102.723633,858.505798 
	C1091.096191,856.180969 1081.863647,861.552002 1073.381104,867.756042 
	C1074.773682,870.778015 1076.042847,873.109497 1076.948975,875.574585 
	C1080.044189,883.995544 1083.005371,892.465942 1086.030884,900.912720 
	C1087.739258,905.682190 1090.946045,908.587891 1096.202393,907.831665 
	C1109.057373,905.982178 1123.940308,898.317749 1120.656006,877.834900 
M1191.702881,368.739929 
	C1182.545532,363.768585 1174.378052,364.262878 1166.988770,371.345123 
	C1163.113037,375.059784 1159.670532,379.656952 1157.366577,384.491394 
	C1152.610840,394.470490 1155.457886,403.557465 1164.314575,409.962036 
	C1172.874756,416.152069 1182.117310,415.836182 1190.307617,408.608063 
	C1193.259277,406.003204 1195.875366,402.828247 1197.988770,399.497406 
	C1205.502930,387.654602 1203.507080,377.544861 1191.702881,368.739929 
M1167.738892,816.979492 
	C1155.486694,819.079956 1146.708496,828.908447 1148.266846,839.458374 
	C1149.877930,850.364014 1155.880493,858.621643 1165.754272,863.451355 
	C1177.835815,869.360901 1194.066528,859.465210 1194.768066,846.040771 
	C1195.424316,833.481750 1181.698364,816.087097 1167.738892,816.979492 
M1254.877197,537.572632 
	C1260.294800,544.521790 1265.609619,547.042542 1271.378296,544.960754 
	C1278.356323,542.442566 1279.402100,536.269897 1280.039551,529.973206 
	C1280.173706,528.647583 1280.162842,527.304382 1280.346191,525.987000 
	C1280.849731,522.366272 1280.927856,518.573975 1282.161865,515.212036 
	C1282.834717,513.379211 1286.763794,510.810333 1287.088501,511.086365 
	C1289.687378,513.295166 1292.385376,515.809204 1293.842651,518.816284 
	C1295.205200,521.627747 1295.092041,525.451782 1291.281738,526.857910 
	C1288.061035,528.046448 1288.609619,530.086792 1289.703247,531.899475 
	C1290.521362,533.255371 1292.784668,535.109436 1293.680298,534.778931 
	C1295.936401,533.946533 1298.679077,532.427429 1299.624390,530.426392 
	C1302.411133,524.528748 1300.380737,518.654175 1297.839233,513.136292 
	C1294.465454,505.811859 1288.160400,501.892609 1282.253174,503.084106 
	C1276.590576,504.226288 1273.553101,509.236664 1272.865234,517.899780 
	C1272.458008,523.028931 1271.984619,528.207703 1270.846191,533.205933 
	C1269.998047,536.929749 1267.127808,538.674011 1263.163086,537.101318 
	C1259.301147,535.569336 1256.094360,529.338806 1256.340698,524.600281 
	C1256.583740,519.920837 1259.984497,519.292603 1263.621094,518.945312 
	C1264.138062,515.045776 1263.004028,512.093201 1259.419189,511.262329 
	C1255.389771,510.328339 1252.641235,512.829041 1251.379395,516.420410 
	C1248.810059,523.733459 1250.862671,530.504517 1254.877197,537.572632 
M781.946472,467.523010 
	C783.749878,464.537445 785.872986,461.694427 787.282410,458.533234 
	C789.430176,453.715942 786.833923,450.673096 783.098206,451.101044 
	C779.285950,457.573425 776.134705,463.286743 772.537537,468.703918 
	C771.870605,469.708252 769.043579,470.294403 767.840210,469.732147 
	C764.485107,468.164612 761.459229,465.892548 758.001587,463.707977 
	C761.283264,459.015137 764.266479,455.015472 766.898987,450.796936 
	C767.556519,449.743225 767.617188,447.089233 767.021301,446.734528 
	C765.745911,445.975342 763.642090,445.689819 762.289734,446.234192 
	C760.916992,446.786804 759.922180,448.487823 758.969604,449.832977 
	C756.697693,453.041046 754.548340,456.335785 752.150146,459.890991 
	C748.626526,457.568695 745.495483,455.505066 741.777100,453.054352 
	C746.051880,447.073181 750.142029,441.465942 754.068481,435.746307 
	C754.746826,434.758026 755.320862,432.483398 754.927612,432.196960 
	C753.631592,431.252930 751.762878,430.327728 750.316956,430.576111 
	C748.914368,430.817047 747.445190,432.299896 746.553406,433.610352 
	C742.061340,440.211060 737.672241,446.886047 733.434509,453.652405 
	C732.545288,455.072205 732.444397,456.985779 732.108948,458.204346 
	C735.294128,459.862427 738.011597,461.046356 740.489624,462.609772 
	C748.227661,467.491791 755.802856,472.634125 763.583008,477.446350 
	C768.830261,480.691864 772.932861,479.873413 776.746338,475.113190 
	C778.508728,472.913239 779.953064,470.458496 781.946472,467.523010 
M1279.191284,723.717712 
	C1276.290039,727.484497 1273.169678,727.226562 1269.993530,723.882385 
	C1266.801392,726.237122 1265.695068,729.174255 1267.598511,732.249573 
	C1269.640381,735.548950 1273.128052,735.882568 1276.426636,734.145203 
	C1283.702759,730.312927 1286.825928,723.585815 1287.924927,715.912964 
	C1289.041016,708.121704 1286.266357,702.093933 1280.860962,699.757263 
	C1274.226440,696.889038 1269.384155,700.421326 1264.834229,704.641541 
	C1263.859131,705.545898 1262.986206,706.560913 1262.002808,707.455383 
	C1259.179810,710.023071 1256.608398,713.052429 1253.368652,714.903870 
	C1251.592773,715.918701 1246.628906,715.179932 1246.579712,714.791931 
	C1246.149780,711.394409 1245.876465,707.716492 1246.808472,704.482422 
	C1247.693359,701.411316 1250.216064,699.271912 1254.212769,700.391418 
	C1255.176270,700.661316 1257.415283,699.676086 1257.549194,698.977173 
	C1257.916382,697.060120 1257.955322,693.464966 1257.270142,693.249573 
	C1254.711670,692.444824 1251.074463,691.580811 1249.169067,692.804993 
	C1241.685181,697.612976 1239.014648,705.300415 1239.347290,713.889648 
	C1239.528442,718.566162 1241.567139,722.644226 1246.308594,724.568054 
	C1251.040283,726.487854 1255.116821,724.827026 1258.758423,721.804993 
	C1260.671631,720.217163 1262.346558,718.345093 1264.165771,716.640381 
	C1266.830688,714.143005 1269.271729,711.274048 1272.308716,709.355835 
	C1274.130493,708.205078 1277.420654,707.603577 1279.105835,708.510803 
	C1280.796509,709.421143 1282.163818,712.522766 1282.135742,714.643738 
	C1282.098511,717.470520 1280.575928,720.277649 1279.191284,723.717712 
M796.999756,774.417664 
	C791.541748,766.678101 787.820251,757.631409 780.805115,751.568726 
	C777.582825,754.032593 775.108459,756.143982 772.421570,757.936707 
	C765.232666,762.733215 757.932312,767.362366 750.717041,772.119751 
	C746.893860,774.640564 744.254395,778.381104 746.453918,782.668152 
	C749.843506,789.274658 753.923950,795.613464 758.405579,801.540955 
	C761.162964,805.187927 764.931885,803.960327 767.163086,799.222778 
	C766.263794,798.621094 765.036804,798.197815 764.443237,797.337524 
	C760.904785,792.209412 757.512573,786.980347 754.071289,781.785095 
	C757.460815,779.026001 760.844543,776.259521 764.255676,773.527344 
	C764.444641,773.375977 764.860352,773.507751 765.553345,773.507751 
	C767.736328,777.008423 770.056824,780.630920 772.270081,784.317749 
	C773.501526,786.369019 774.112000,789.556030 777.545410,787.630310 
	C780.777100,785.817505 779.582581,783.107727 778.197815,780.729309 
	C775.963501,776.891724 773.564148,773.150208 771.019592,769.019165 
	C774.369751,766.837585 777.514038,764.790039 781.238831,762.364502 
	C784.935791,768.524536 788.349243,774.357544 791.942749,780.077515 
	C792.664795,781.226868 794.071106,781.946289 795.162048,782.863953 
	C796.205261,781.540100 797.631348,780.350525 798.159180,778.845886 
	C798.520203,777.816833 797.629028,776.348572 796.999756,774.417664 
M801.202209,390.448853 
	C805.422546,402.811462 809.642883,415.174072 813.865540,427.543427 
	C819.652710,426.493439 820.872864,424.552185 819.396606,419.083191 
	C818.813538,416.922791 817.467957,413.682434 818.394043,412.634277 
	C821.552734,409.059448 825.283569,405.736145 829.412720,403.412750 
	C830.827393,402.616730 834.052063,405.062653 836.459900,406.001526 
	C841.432007,407.940308 845.086365,405.216949 844.899475,400.168732 
	C841.888794,398.755615 838.974487,397.604614 836.270752,396.080139 
	C825.979065,390.277344 815.826050,384.225677 805.476929,378.528961 
	C800.159363,375.601837 797.135864,377.230347 796.160767,381.693481 
	C798.169739,385.024658 799.578491,387.360504 801.202209,390.448853 
M814.972839,846.572144 
	C819.257812,848.963623 819.409180,852.114990 817.707336,856.500732 
	C815.478516,862.244873 818.876831,865.881653 824.358215,864.872620 
	C825.187500,861.838562 825.777710,858.922852 826.777161,856.154846 
	C830.832336,844.923950 835.152893,833.787109 839.086792,822.514832 
	C840.949219,817.178040 838.784302,814.523743 834.287048,814.276855 
	C831.627625,816.645996 829.940674,818.779053 827.746033,819.998474 
	C816.182251,826.423889 804.490356,832.618835 792.786011,838.924438 
	C794.125244,844.451477 796.922852,845.787781 802.479248,842.530090 
	C806.028076,840.449585 808.684692,840.183472 811.390625,843.506836 
	C812.214539,844.518738 813.400085,845.236145 814.972839,846.572144 
M1227.111938,465.235992 
	C1223.478760,460.597565 1221.522339,455.507782 1224.774536,450.020325 
	C1228.975464,442.932159 1235.418335,438.562073 1243.530518,437.195862 
	C1248.202515,436.409027 1252.456909,437.774048 1255.305542,442.044495 
	C1258.136108,446.287750 1255.273193,449.117706 1252.648438,451.819489 
	C1254.058594,455.397034 1255.778076,458.659241 1259.827271,457.665985 
	C1264.015991,456.638580 1264.318237,452.821747 1264.003052,449.119720 
	C1263.974854,448.787933 1263.944824,448.454773 1263.887085,448.127289 
	C1261.688965,435.647278 1248.248047,427.010986 1235.985352,430.429108 
	C1228.353027,432.556549 1222.141235,436.990967 1217.778809,443.643585 
	C1209.780518,455.840820 1217.710693,473.494202 1232.128174,475.761566 
	C1235.295532,476.259735 1238.033325,475.739807 1238.892578,472.619751 
	C1234.850708,470.177246 1231.230957,467.989868 1227.111938,465.235992 
M1249.179077,794.620117 
	C1254.963989,784.663330 1254.172607,776.538147 1246.886719,775.255493 
	C1246.886719,777.119019 1247.023560,778.925842 1246.864014,780.706055 
	C1245.995483,790.394348 1238.039673,797.181519 1229.631348,794.887634 
	C1222.296143,792.886353 1216.437500,788.354248 1213.185059,781.363037 
	C1212.003052,778.822388 1211.748901,775.479431 1212.148804,772.655090 
	C1212.854980,767.667786 1216.927368,765.546631 1221.178711,766.838562 
	C1222.687134,767.297058 1225.428467,767.191772 1226.062256,766.275330 
	C1227.222290,764.598267 1228.093872,761.806580 1227.454834,760.085144 
	C1226.928101,758.666321 1223.759888,757.027100 1222.263672,757.415833 
	C1219.015015,758.259460 1215.587158,759.781677 1213.114624,762.006653 
	C1202.419800,771.630249 1202.833984,786.224426 1213.735596,796.180664 
	C1226.100708,807.473450 1239.300171,807.124756 1249.179077,794.620117 
M722.925354,538.355225 
	C727.344116,539.786987 731.729492,541.335083 736.191589,542.615967 
	C740.201660,543.767151 744.209045,543.363403 746.029846,539.158264 
	C748.389282,533.709045 750.426514,528.040405 751.815308,522.276550 
	C752.901062,517.770264 749.908691,515.375000 746.294800,516.000732 
	C745.181335,520.650513 744.094666,524.871155 743.171814,529.127258 
	C742.156555,533.809204 739.681824,534.874329 735.177734,533.294373 
	C725.944519,530.055603 716.630920,527.013855 707.229431,524.312012 
	C705.177368,523.722290 701.969238,524.162292 700.481812,525.474792 
	C699.100647,526.693481 699.306458,529.710632 699.028564,530.965027 
	C707.455811,533.568604 714.811157,535.841064 722.925354,538.355225 
M729.388306,709.702209 
	C737.279785,707.129211 745.241455,704.745056 753.014648,701.854065 
	C755.027283,701.105469 757.398865,699.002991 757.869446,697.094421 
	C758.319458,695.269165 756.510376,692.887024 755.802490,691.033020 
	C752.322754,692.612366 749.893127,693.968750 747.301270,694.845581 
	C738.182068,697.930725 729.001038,700.832581 719.856079,703.842285 
	C715.638184,705.230469 712.528748,707.943359 713.531372,712.622437 
	C714.741211,718.268860 716.471741,723.882385 718.699890,729.207642 
	C720.542480,733.611450 723.998169,733.847839 726.886292,731.303345 
	C724.849548,726.286194 722.660278,721.710571 721.249146,716.906372 
	C720.839539,715.511841 722.274658,713.060852 723.566040,711.831543 
	C724.766968,710.688171 726.903015,710.527039 729.388306,709.702209 
M985.414856,482.963531 
	C988.769470,480.989014 992.124146,479.014496 995.775635,476.865295 
	C995.775635,474.656525 995.775635,471.737976 995.775635,468.660858 
	C987.552002,468.422913 981.746399,472.555237 976.527527,477.955505 
	C971.323364,472.038300 965.375427,468.404907 957.280640,468.694336 
	C957.280640,472.004700 957.280640,474.794891 957.280640,477.546936 
	C967.829895,481.075409 968.166687,481.409302 972.461304,492.407837 
	C977.891235,493.732574 982.410645,493.536926 983.128113,486.479828 
	C983.232483,485.453217 984.310181,484.525543 985.414856,482.963531 
z"/>
<path fill="#FEFEFE" opacity="1.000000" stroke="none" 
	d="
M1091.728638,709.732300 
	C1071.203369,738.183228 1043.540894,754.093079 1009.386292,758.931213 
	C990.531189,761.602112 972.836792,756.332214 956.400574,748.211853 
	C913.292114,726.913818 890.871094,691.589355 889.158325,643.541565 
	C888.517517,625.564758 889.043640,607.546204 889.054871,589.546692 
	C889.055664,588.254333 889.197266,586.962158 889.288940,585.406128 
	C963.802795,585.406128 1038.046509,585.406128 1112.219849,585.406128 
	C1112.470459,585.811340 1112.789429,586.085327 1112.783813,586.352417 
	C1112.243774,611.807678 1112.589478,637.326721 1110.798584,662.694824 
	C1109.588745,679.830872 1101.718018,695.256409 1091.728638,709.732300 
M994.770874,706.066650 
	C989.759644,703.723450 984.748413,701.380249 979.013306,698.698547 
	C977.592651,700.150757 975.535522,702.253540 973.506531,704.327576 
	C986.622620,720.514465 1017.115845,720.375183 1028.360229,704.154358 
	C1026.255127,702.145325 1024.119995,700.107483 1021.911865,698.000061 
	C1014.178711,704.856201 1005.716064,708.298279 994.770874,706.066650 
M1070.270630,629.347900 
	C1068.730713,627.914124 1067.190796,626.480408 1065.602661,625.001709 
	C1059.480347,630.784973 1052.611572,633.845520 1044.582764,633.844727 
	C1036.563843,633.843872 1029.846436,630.421814 1023.988464,625.123230 
	C1021.668579,627.444275 1019.578064,629.535950 1017.480530,631.634583 
	C1029.164429,645.652039 1054.561890,648.692200 1070.677734,633.354736 
	C1071.280151,632.781372 1070.771606,631.040649 1070.270630,629.347900 
M942.736511,629.863342 
	C940.605957,628.343628 938.475342,626.823914 936.165161,625.176086 
	C933.981079,627.262695 931.846069,629.302368 929.735291,631.318909 
	C942.682007,647.510254 972.433167,647.406311 984.183411,631.862854 
	C982.250305,629.512451 980.368713,627.224731 978.404785,624.836853 
	C967.492676,634.281006 956.074097,636.720825 942.736511,629.863342 
M1093.492920,604.771423 
	C1094.925781,604.690063 1096.358643,604.608643 1097.887451,604.521790 
	C1097.887451,601.201294 1097.887451,598.197876 1097.887451,595.111328 
	C1094.745728,595.111328 1091.976929,595.111328 1088.624512,595.111328 
	C1088.624512,597.198242 1088.789673,599.145203 1088.587402,601.053162 
	C1088.246460,604.270386 1089.793823,605.167175 1093.492920,604.771423 
M1057.993774,595.009216 
	C1055.390137,595.009216 1052.786621,595.009216 1050.066895,595.009216 
	C1050.066895,598.377441 1050.066895,601.410950 1050.066895,604.378662 
	C1053.276978,604.378662 1056.130981,604.378662 1059.509155,604.378662 
	C1059.255127,601.064209 1059.033569,598.173462 1057.993774,595.009216 
M1069.084717,596.732605 
	C1069.084717,599.308472 1069.084717,601.884338 1069.084717,604.401611 
	C1072.775024,604.401611 1075.676147,604.401611 1078.612793,604.401611 
	C1078.612793,601.120667 1078.612793,598.219543 1078.612793,594.602417 
	C1075.222412,595.040771 1072.218140,595.429260 1069.084717,596.732605 
z"/>
<path fill="#FDFEFD" opacity="1.000000" stroke="none" 
	d="
M995.073608,1029.885742 
	C1000.322998,1035.379517 1001.069275,1041.922119 1001.068115,1048.712524 
	C1001.060974,1089.708008 1000.954895,1130.704102 1001.192749,1171.698242 
	C1001.227417,1177.675049 1002.925537,1183.642212 1004.095825,1191.170044 
	C998.799316,1196.749023 990.281494,1197.638550 982.006653,1195.309082 
	C976.026123,1193.625366 969.846313,1190.232666 965.460266,1185.882935 
	C959.272644,1179.746704 954.140503,1172.349121 949.465942,1164.918945 
	C931.025696,1135.608765 912.942871,1106.073608 894.716553,1076.628784 
	C893.788391,1075.129272 892.758606,1073.692627 891.129517,1071.262207 
	C890.940735,1073.732666 890.743408,1075.116211 890.742676,1076.499634 
	C890.726196,1108.496094 890.766418,1140.492676 890.700134,1172.488892 
	C890.687866,1178.404907 891.539185,1183.808472 896.986084,1187.428223 
	C891.201477,1195.072876 883.589355,1197.366455 874.724365,1195.738647 
	C867.989929,1194.502197 863.836304,1190.043335 862.266907,1183.540283 
	C861.379150,1179.862183 861.051025,1175.968506 861.043274,1172.170654 
	C860.959961,1131.175415 860.974060,1090.179810 861.008484,1049.184326 
	C861.013367,1043.310913 860.224060,1037.863281 854.655518,1034.531982 
	C861.472778,1025.371826 875.783936,1022.855957 887.057556,1028.560059 
	C894.644714,1032.399170 899.653076,1038.757935 903.974915,1045.799438 
	C921.043884,1073.609863 938.113770,1101.419678 955.191040,1129.225098 
	C960.155396,1137.308105 965.145752,1145.375244 970.730408,1154.432861 
	C971.048035,1152.328125 971.369446,1151.188599 971.370300,1150.048828 
	C971.395203,1116.219238 971.381104,1082.389771 971.393433,1048.560181 
	C971.395508,1042.867676 970.455933,1037.616821 965.037903,1034.453369 
	C972.154846,1024.620728 984.769348,1022.684875 995.073608,1029.885742 
z"/>
<path fill="#FEFEFE" opacity="1.000000" stroke="none" 
	d="
M974.815918,565.415222 
	C983.490906,552.327271 991.856995,539.503296 1000.201294,526.665161 
	C1008.449280,513.975220 1016.675293,501.270996 1025.339600,487.912140 
	C1031.444092,497.342468 1037.242554,506.300049 1043.089966,515.333130 
	C1031.267090,531.911804 1019.581848,548.297607 1007.843445,564.757935 
	C1015.192505,567.345825 1018.668335,566.329712 1022.736389,560.628418 
	C1035.601318,542.598572 1048.466431,524.568665 1061.344604,506.548157 
	C1062.199585,505.351685 1063.163696,504.233154 1064.387451,502.685699 
	C1070.105225,510.675537 1075.600830,518.346619 1081.087769,526.023804 
	C1089.706177,538.082214 1098.387573,550.096741 1106.878784,562.244141 
	C1108.680786,564.821960 1110.527222,566.057190 1113.796143,565.898010 
	C1119.763916,565.607483 1125.756104,565.815430 1132.023926,565.815430 
	C1132.023926,569.095276 1132.023926,572.003845 1132.023926,575.175659 
	C1044.691406,575.175659 957.599731,575.175659 870.096497,575.175659 
	C870.096497,572.333374 870.096497,569.440369 870.096497,565.955322 
	C882.591553,565.955322 895.146851,565.955322 908.659119,565.955322 
	C907.455017,555.201721 912.919617,543.706726 900.273193,536.390747 
	C895.236206,541.390991 888.900757,543.242065 881.841003,539.328430 
	C876.732544,536.496521 874.304688,531.859558 874.650940,526.029053 
	C875.110107,518.297302 879.948425,514.220032 887.381104,512.104065 
	C883.949524,506.134552 882.750305,500.182861 886.844666,494.263580 
	C890.836304,488.492920 896.653992,487.333466 903.080627,488.182922 
	C906.247864,477.645447 911.011353,473.103394 918.594421,473.240662 
	C926.000854,473.374725 930.952759,478.296082 933.189148,487.745300 
	C950.640076,489.278503 956.180481,497.493927 949.237671,512.080994 
	C956.853516,514.164673 961.923889,518.660278 961.951965,527.041626 
	C961.971558,532.887024 959.055542,537.336670 953.833740,539.803955 
	C947.173523,542.950928 941.192444,541.269043 936.789978,536.816467 
	C934.135498,538.910950 931.488037,540.828247 929.077942,543.008057 
	C928.373352,543.645325 928.066101,545.025330 928.050903,546.071716 
	C927.959290,552.394836 928.005310,558.719910 928.005310,565.673035 
	C943.661255,565.673035 959.079346,565.673035 974.815918,565.415222 
z"/>
<path fill="#FDFEFE" opacity="1.000000" stroke="none" 
	d="
M1113.373535,1176.497925 
	C1112.174194,1169.965088 1110.324097,1163.772583 1110.277710,1157.566406 
	C1110.037109,1125.414062 1110.236328,1093.258179 1110.331421,1061.103638 
	C1110.356567,1052.576538 1110.282349,1044.098267 1104.991333,1035.588623 
	C1112.785767,1033.487915 1119.852783,1031.282104 1127.056641,1029.698730 
	C1147.581909,1025.187988 1168.288574,1023.586365 1188.969116,1028.324707 
	C1226.193481,1036.853516 1249.225464,1065.036621 1251.166138,1103.440186 
	C1252.605713,1131.931519 1246.057861,1157.343994 1223.748901,1176.860840 
	C1209.765747,1189.094116 1192.925171,1194.417725 1174.790771,1195.787598 
	C1161.319946,1196.805176 1147.806030,1196.632324 1134.609497,1192.993042 
	C1125.424561,1190.460327 1117.771606,1185.868042 1113.373535,1176.497925 
M1192.248047,1053.149536 
	C1176.376465,1044.440063 1159.800659,1044.673218 1142.832153,1049.109619 
	C1139.919067,1049.871338 1140.013916,1051.741699 1140.013794,1053.989258 
	C1140.012939,1089.622559 1139.951416,1125.255981 1139.959961,1160.889282 
	C1139.962036,1169.544678 1143.697021,1173.720947 1152.234863,1174.939331 
	C1153.881470,1175.174316 1155.541870,1175.315308 1157.196899,1175.489502 
	C1186.832275,1178.609497 1210.635376,1162.082397 1218.021729,1133.218872 
	C1220.948853,1121.780273 1221.311401,1110.149292 1219.853760,1098.512695 
	C1217.486694,1079.615845 1209.671875,1063.845093 1192.248047,1053.149536 
z"/>
<path fill="#FEFEFE" opacity="1.000000" stroke="none" 
	d="
M820.010193,1080.848145 
	C818.836792,1101.461914 810.248535,1111.934937 784.042725,1125.155029 
	C784.025024,1125.440796 783.872314,1125.834473 784.007141,1126.026123 
	C794.534363,1141.000366 804.780640,1156.187744 815.802979,1170.789307 
	C819.478821,1175.658813 825.146240,1179.024902 830.233276,1183.359375 
	C825.951782,1197.106445 805.921631,1201.509399 793.686829,1190.027466 
	C789.012024,1185.640381 785.124084,1180.275635 781.502197,1174.933105 
	C772.258057,1161.297241 763.264587,1147.487305 754.405945,1133.597046 
	C752.298157,1130.292114 750.063049,1128.617920 746.033508,1129.049805 
	C742.620850,1129.415405 739.137878,1129.125122 735.130615,1129.125122 
	C735.130615,1136.457153 735.129517,1143.234985 735.130981,1150.012817 
	C735.132690,1158.007324 735.076904,1166.002441 735.160461,1173.996094 
	C735.216797,1179.383911 736.533691,1184.265625 741.590454,1187.236084 
	C736.172119,1194.880127 727.091370,1198.045410 718.260437,1195.478149 
	C710.641907,1193.263306 706.078003,1186.909546 706.006348,1176.934570 
	C705.794495,1147.456543 705.874451,1117.976318 705.847656,1088.496948 
	C705.836914,1076.671753 705.764465,1064.845703 705.877747,1053.021606 
	C705.939209,1046.601196 705.018311,1040.707153 699.017700,1036.846924 
	C702.818481,1031.824707 707.684937,1028.380981 713.404541,1028.239258 
	C734.666321,1027.712036 756.115845,1025.424683 777.089783,1030.250977 
	C785.162598,1032.108643 793.127930,1035.920898 800.194580,1040.353394 
	C814.697388,1049.449951 820.590515,1063.473633 820.010193,1080.848145 
M789.776306,1080.243408 
	C789.833618,1063.650879 782.584167,1053.477905 766.819214,1050.705811 
	C756.650330,1048.917725 746.105347,1049.269043 735.441040,1048.644653 
	C735.441040,1068.949463 735.441040,1088.127930 735.441040,1107.170166 
	C744.686157,1107.170166 753.665833,1107.803101 762.523621,1107.033203 
	C778.932922,1105.607056 787.214172,1097.302002 789.776306,1080.243408 
z"/>
<path fill="#FDFEFE" opacity="1.000000" stroke="none" 
	d="
M1316.731445,1033.701782 
	C1338.142700,1023.510254 1359.895874,1023.005127 1381.709473,1030.155640 
	C1400.757935,1036.399536 1412.817993,1050.538696 1419.500854,1068.828979 
	C1429.752441,1096.887207 1429.928101,1125.397949 1419.109497,1153.329224 
	C1408.359863,1181.082886 1387.296265,1195.307251 1357.619629,1195.946655 
	C1348.564941,1196.141724 1339.231201,1195.359009 1330.436279,1193.282837 
	C1308.402710,1188.081909 1294.220337,1173.217285 1286.365967,1152.701660 
	C1275.787354,1125.070068 1275.847412,1096.938477 1286.266724,1069.220337 
	C1291.982544,1054.014893 1301.751587,1041.729614 1316.731445,1033.701782 
M1395.804077,1135.023804 
	C1395.859863,1124.231934 1396.652466,1113.381104 1395.797241,1102.661987 
	C1394.537476,1086.873535 1389.655518,1072.229858 1379.807373,1059.301514 
	C1365.532349,1040.561401 1327.599976,1036.143555 1315.116943,1068.215088 
	C1314.333984,1070.226562 1313.558105,1072.247803 1312.921753,1074.308472 
	C1307.847412,1090.744385 1308.190186,1107.461182 1310.575195,1124.235229 
	C1312.546509,1138.099365 1317.019043,1150.925171 1325.776855,1162.197266 
	C1340.850708,1181.598633 1378.537964,1185.298462 1390.915894,1152.637207 
	C1392.964233,1147.232056 1394.097168,1141.479858 1395.804077,1135.023804 
z"/>
<path fill="#FDFEFD" opacity="1.000000" stroke="none" 
	d="
M1677.648315,1176.766846 
	C1685.355469,1176.241455 1692.746338,1176.296265 1699.830933,1174.850098 
	C1704.183472,1173.961670 1708.524414,1171.349609 1712.074585,1168.514893 
	C1722.088013,1160.519409 1722.891113,1147.459717 1713.228394,1139.012573 
	C1706.810913,1133.402222 1699.148071,1128.984253 1691.517822,1125.050537 
	C1681.480591,1119.875854 1670.717773,1116.111206 1660.666870,1110.960083 
	C1653.321899,1107.195679 1645.998169,1102.903809 1639.750122,1097.574951 
	C1620.403442,1081.073975 1621.464111,1054.638184 1641.700684,1039.102417 
	C1657.665649,1026.846069 1676.153320,1024.016724 1695.610107,1025.398682 
	C1708.380615,1026.305664 1720.660645,1029.047363 1731.446777,1036.429443 
	C1737.651855,1040.676270 1742.603027,1045.924072 1744.111816,1053.662720 
	C1746.806641,1067.484863 1738.292114,1076.757446 1724.387817,1074.791016 
	C1720.704590,1074.270020 1717.181152,1072.618896 1713.736328,1071.534668 
	C1715.522705,1054.274536 1709.591919,1046.356201 1692.543091,1044.964600 
	C1684.640991,1044.319580 1676.023682,1045.033569 1668.588257,1047.608276 
	C1652.793579,1053.077637 1650.726807,1068.874634 1664.088013,1078.944214 
	C1670.286499,1083.615601 1677.215698,1087.446045 1684.166504,1090.959717 
	C1694.106445,1095.984253 1704.683838,1099.803467 1714.399414,1105.199219 
	C1722.609009,1109.758667 1730.776367,1114.985596 1737.561646,1121.399048 
	C1753.184692,1136.165527 1753.055054,1159.974121 1738.116211,1175.541626 
	C1727.064453,1187.058105 1713.326416,1193.394775 1697.644653,1195.302856 
	C1677.903442,1197.704834 1658.696167,1195.898804 1640.995850,1185.916260 
	C1631.696167,1180.671265 1624.324585,1173.700806 1622.734253,1162.360962 
	C1621.370361,1152.634644 1624.837402,1145.224365 1632.575806,1141.372192 
	C1640.825806,1137.265503 1650.840210,1138.962036 1657.469604,1145.674805 
	C1656.669312,1146.885986 1655.798706,1148.090698 1655.044312,1149.364014 
	C1650.537598,1156.969971 1651.718750,1165.388306 1659.245239,1169.917358 
	C1664.640625,1173.164062 1671.176025,1174.516235 1677.648315,1176.766846 
z"/>
<path fill="#FEFEFE" opacity="1.000000" stroke="none" 
	d="
M394.794373,1076.999756 
	C394.794312,1068.834839 394.751434,1061.169556 394.807190,1053.505127 
	C394.854553,1046.995850 394.424591,1040.715942 387.806702,1036.925049 
	C392.488342,1031.207520 398.033051,1027.913330 404.869843,1027.890991 
	C433.525879,1027.797119 462.185272,1027.781982 490.836792,1028.195923 
	C495.461517,1028.262695 500.407990,1029.959473 504.583527,1032.110474 
	C512.629211,1036.255127 514.045837,1047.453369 507.572845,1053.782104 
	C506.308136,1055.018677 503.569794,1055.452759 501.657745,1055.190063 
	C495.920746,1054.401611 490.274933,1052.255005 484.560181,1052.126953 
	C465.407227,1051.697510 446.239777,1051.912109 427.077881,1051.895630 
	C426.275543,1051.894897 425.473114,1052.048096 424.393372,1052.157959 
	C424.393372,1066.065552 424.393372,1079.798950 424.393372,1094.182983 
	C426.310608,1094.182983 428.081665,1094.158081 429.851837,1094.186768 
	C444.671143,1094.427856 459.491272,1094.635864 474.308472,1094.971069 
	C476.612061,1095.023193 478.946320,1095.498657 481.190826,1096.073364 
	C490.174042,1098.373779 493.878052,1106.075317 490.234436,1114.670166 
	C487.983124,1119.980713 486.026184,1120.641479 480.413788,1120.025024 
	C471.662231,1119.063843 462.850128,1118.467529 454.048920,1118.194824 
	C444.269440,1117.891846 434.473328,1118.125488 424.593750,1118.125488 
	C424.593750,1132.063354 424.137115,1145.512451 424.776215,1158.909424 
	C425.123383,1166.187134 429.380676,1169.700073 436.669220,1169.827881 
	C452.325684,1170.102295 468.043945,1170.635376 483.628754,1169.533081 
	C490.872070,1169.020752 497.862946,1164.938843 506.012939,1162.112793 
	C514.603577,1168.084595 513.941345,1183.583740 502.910492,1189.752563 
	C499.107330,1191.879395 494.448090,1193.538086 490.166595,1193.568848 
	C467.862732,1193.729736 445.500397,1194.171997 423.264984,1192.795044 
	C405.279327,1191.681396 395.307892,1180.056519 395.035339,1161.977051 
	C394.610901,1133.823120 394.841431,1105.659424 394.794373,1076.999756 
z"/>
<path fill="#FDFEFD" opacity="1.000000" stroke="none" 
	d="
M534.857422,1190.029297 
	C533.471680,1188.200928 532.189636,1187.232544 534.251953,1184.823486 
	C537.645752,1180.859253 540.927063,1176.422241 542.832764,1171.619751 
	C559.087280,1130.657593 575.058777,1089.582520 590.933899,1048.471436 
	C591.700806,1046.485229 591.344055,1043.606201 590.493164,1041.567627 
	C589.369629,1038.876099 587.239990,1036.604370 585.459106,1034.031128 
	C590.001038,1022.888855 612.601379,1023.143005 617.283691,1032.265015 
	C620.385620,1038.307983 623.605896,1044.365967 625.911987,1050.729370 
	C639.793152,1089.033325 653.431396,1127.425293 667.135681,1165.793335 
	C669.970398,1173.729614 673.436707,1181.222412 680.841003,1185.876343 
	C677.566162,1197.778320 652.233154,1200.450806 645.903870,1188.824341 
	C641.799927,1181.285767 638.545044,1173.216187 635.636292,1165.123291 
	C634.076660,1160.783813 632.109802,1159.351318 627.494629,1159.447144 
	C612.005859,1159.769531 596.504822,1159.677490 581.011719,1159.487305 
	C577.580078,1159.445312 576.022156,1160.563965 574.931213,1163.774292 
	C572.686218,1170.380859 570.321838,1176.989746 567.388062,1183.310669 
	C560.703918,1197.711914 547.335938,1200.484131 534.857422,1190.029297 
M605.051758,1077.213013 
	C597.951904,1098.079590 590.852051,1118.946045 583.575073,1140.333130 
	C598.074646,1140.333130 611.889099,1140.333130 626.312317,1140.333130 
	C619.687317,1118.289429 613.208679,1096.733032 606.555176,1074.594482 
	C605.795776,1075.751465 605.525391,1076.163330 605.051758,1077.213013 
z"/>
<path fill="#FDFEFE" opacity="1.000000" stroke="none" 
	d="
M1550.265991,1049.778564 
	C1540.190674,1041.209229 1529.202759,1042.220703 1518.546143,1046.706177 
	C1505.496338,1052.198853 1497.628784,1063.071655 1493.146484,1076.066650 
	C1486.286255,1095.956421 1485.853027,1116.372192 1491.468506,1136.564819 
	C1498.574707,1162.117920 1520.146729,1171.455322 1542.975464,1169.544312 
	C1557.836792,1168.300293 1570.289551,1161.627319 1581.010010,1151.483276 
	C1581.614258,1150.911499 1582.188232,1150.306641 1582.809814,1149.755005 
	C1583.046875,1149.544678 1583.378662,1149.441040 1583.668701,1149.291504 
	C1588.850098,1152.402344 1590.993164,1157.979248 1589.447021,1164.292725 
	C1587.858765,1170.778320 1583.607422,1175.410767 1578.707153,1179.533936 
	C1535.748901,1215.680420 1470.531006,1193.454102 1459.224731,1138.670654 
	C1455.305298,1119.679077 1455.363037,1100.581909 1460.782715,1081.796509 
	C1471.054077,1046.193970 1499.936401,1025.030884 1536.978760,1025.609619 
	C1551.236084,1025.832397 1564.771484,1028.511963 1576.799805,1036.617798 
	C1583.680054,1041.254395 1588.926758,1047.035645 1589.355103,1055.924194 
	C1589.741943,1063.949829 1586.295166,1069.303345 1578.709839,1072.059692 
	C1571.849976,1074.552490 1564.904175,1074.285278 1558.222900,1071.614014 
	C1556.840454,1071.061279 1555.402588,1068.516602 1555.438599,1066.922607 
	C1555.579224,1060.697998 1554.441040,1055.013672 1550.265991,1049.778564 
z"/>
<path fill="#FEFEFE" opacity="1.000000" stroke="none" 
	d="
M259.648132,1102.999268 
	C259.647491,1084.836548 259.642059,1067.174072 259.648865,1049.511475 
	C259.651184,1043.536621 258.991028,1037.845093 253.181015,1034.443726 
	C258.751465,1026.745483 267.749268,1023.752869 276.841919,1026.368164 
	C284.257507,1028.500977 288.872284,1034.798340 288.983459,1044.498535 
	C289.250702,1067.823120 289.145020,1091.152100 289.175018,1114.479248 
	C289.192352,1127.976074 289.085968,1141.473877 289.210052,1154.969604 
	C289.328705,1167.869385 293.496918,1171.869751 306.476196,1171.916870 
	C313.974335,1171.944092 321.474701,1171.812256 328.970459,1171.949219 
	C338.909058,1172.130859 348.300751,1170.867554 355.265686,1162.885010 
	C362.026855,1167.754517 363.052917,1177.053833 357.851990,1184.314453 
	C353.314331,1190.649048 346.645691,1193.578613 339.314697,1193.656982 
	C321.510529,1193.847778 303.642426,1194.106079 285.906036,1192.845947 
	C268.951477,1191.641357 260.503448,1182.115601 260.019867,1164.976074 
	C259.442108,1144.496582 259.733307,1123.992676 259.648132,1102.999268 
z"/>
<path fill="#FAFBFA" opacity="1.000000" stroke="none" 
	d="
M945.029419,309.277283 
	C948.496643,311.304718 952.166016,312.821869 954.563965,315.484161 
	C961.988098,323.726532 968.928284,332.404755 977.206848,340.488525 
	C975.441223,329.415649 973.675537,318.342804 971.826782,306.748718 
	C976.040283,302.930695 980.159180,303.990326 981.280701,310.387360 
	C983.088257,320.696899 984.455566,331.083557 986.017883,341.436310 
	C986.290710,343.244080 986.730225,345.035706 986.870728,346.851959 
	C987.018005,348.756378 987.326233,352.197083 986.821838,352.339630 
	C984.418030,353.018890 981.445862,353.584747 979.276245,352.707031 
	C976.655151,351.646667 974.358704,349.340729 972.411865,347.140228 
	C966.571167,340.538177 960.977905,333.717560 955.266296,327.000732 
	C954.117554,325.649750 952.873169,324.380066 950.834900,323.467438 
	C952.531311,334.141693 954.227783,344.815948 956.111572,356.668884 
	C954.919617,356.958344 952.435242,358.364471 950.591553,357.773102 
	C948.905457,357.232330 947.093079,354.677673 946.750305,352.757965 
	C944.910767,342.455566 943.570007,332.065247 941.928894,321.725616 
	C941.422668,318.536407 940.513245,315.411194 939.587585,311.383087 
	C940.865295,310.855011 942.757629,310.072906 945.029419,309.277283 
z"/>
<path fill="#FAFBFA" opacity="1.000000" stroke="none" 
	d="
M979.671204,878.660400 
	C978.939880,874.706848 981.969788,874.676514 983.512329,875.358765 
	C985.424194,876.204346 987.999146,878.413452 988.038513,880.086426 
	C988.150696,884.854187 987.152527,889.652710 986.535889,894.432007 
	C985.388000,903.329041 984.289246,912.234558 982.916321,921.097290 
	C982.747437,922.187744 981.085999,923.783264 980.013489,923.869690 
	C975.421753,924.239563 972.537720,921.419556 970.773010,917.572449 
	C966.755249,908.813660 962.939148,899.962402 959.032959,891.152344 
	C958.304871,889.510132 957.538879,887.884644 955.639832,886.244690 
	C954.176086,896.717896 952.712341,907.191162 951.088135,918.812622 
	C949.849426,918.750793 946.894897,919.462708 945.494324,918.301086 
	C943.975586,917.041321 943.092896,913.942200 943.341125,911.809021 
	C944.455688,902.232971 946.132812,892.723999 947.474976,883.172241 
	C947.997253,879.455566 948.171570,875.689941 948.520569,871.763550 
	C954.066650,869.545166 957.652405,870.865295 960.452148,877.058228 
	C964.558594,886.141663 968.341919,895.371033 972.283508,904.529358 
	C972.981750,906.151794 973.780334,907.731018 975.792725,909.285400 
	C977.131287,899.202148 978.469849,889.118835 979.671204,878.660400 
z"/>
<path fill="#FDFEFD" opacity="1.000000" stroke="none" 
	d="
M709.195129,637.977600 
	C698.903320,632.465637 695.022583,623.188049 698.748413,613.763550 
	C702.219727,604.982910 711.655457,600.120117 720.650269,602.476318 
	C730.957031,605.176208 736.904419,615.463623 734.060913,625.673279 
	C731.130920,636.193542 720.787537,641.434937 709.195129,637.977600 
z"/>
<path fill="#FDFEFD" opacity="1.000000" stroke="none" 
	d="
M1288.343994,639.087524 
	C1276.978271,639.341064 1269.624756,633.927368 1267.541016,624.094421 
	C1265.763916,615.708496 1270.555054,606.754211 1278.625122,603.379272 
	C1288.682251,599.173279 1300.339966,604.485229 1303.678467,614.795044 
	C1307.223877,625.743225 1300.755615,636.241333 1288.343994,639.087524 
z"/>
<path fill="#FAFBFA" opacity="1.000000" stroke="none" 
	d="
M897.369263,369.619568 
	C893.101318,366.970306 889.254578,364.308899 885.140808,362.158447 
	C883.307434,361.200043 880.936462,361.270020 878.809509,360.873230 
	C878.546448,361.407745 878.283386,361.942261 878.020264,362.476776 
	C880.522949,367.565674 883.025574,372.654541 886.011719,378.726501 
	C884.808350,379.430786 882.709290,381.661163 880.892212,381.451202 
	C878.932007,381.224731 876.499878,379.076385 875.548462,377.140045 
	C870.787842,367.451569 866.490051,357.536743 861.921631,347.751923 
	C860.897583,345.558533 859.440125,343.567474 857.867920,340.962585 
	C857.996887,340.734497 858.253540,339.575897 858.955383,339.148712 
	C866.060425,334.823853 873.233826,330.543762 881.952454,330.622955 
	C887.393921,330.672363 891.563965,333.027283 893.977722,338.047699 
	C896.350464,342.982758 895.892639,347.715820 892.764648,352.194489 
	C892.112610,353.128174 891.414673,354.029816 890.297607,355.542358 
	C896.783508,359.046143 902.965454,362.385681 909.229309,365.769501 
	C907.885437,371.445068 904.434021,372.753845 897.369263,369.619568 
M877.104553,355.671448 
	C879.281738,354.502533 881.609131,353.543732 883.603333,352.118683 
	C887.183716,349.560120 888.021179,346.070526 886.067810,342.080902 
	C884.142029,338.147888 880.974548,336.454285 876.702148,337.699219 
	C873.928101,338.507507 871.288696,339.778168 867.727295,341.181122 
	C870.903809,346.584045 873.645752,351.247894 877.104553,355.671448 
z"/>
<path fill="#F9FBFA" opacity="1.000000" stroke="none" 
	d="
M1080.806396,353.630859 
	C1084.733154,342.485809 1088.542725,331.709290 1092.460083,320.627960 
	C1107.700317,318.605591 1123.517090,328.889221 1125.480225,342.649353 
	C1126.895386,352.567932 1120.826416,364.655884 1112.131226,369.237946 
	C1103.878662,373.586792 1089.597534,371.531067 1082.608765,365.017120 
	C1079.171387,361.813324 1079.245239,358.034729 1080.806396,353.630859 
M1111.576050,331.857513 
	C1109.542603,330.776093 1107.569946,329.553741 1105.462524,328.643494 
	C1101.466797,326.917664 1098.912842,327.517334 1097.456787,332.412750 
	C1095.050537,340.503143 1092.005859,348.418945 1088.910522,356.282471 
	C1087.373291,360.187836 1088.602661,362.328217 1092.205322,363.561432 
	C1094.072021,364.200470 1096.004395,364.845215 1097.949463,365.022461 
	C1104.862305,365.652313 1110.426270,362.214172 1113.905884,355.413635 
	C1118.509521,346.416321 1117.952026,339.150879 1111.576050,331.857513 
z"/>
<path fill="#FAFBFA" opacity="1.000000" stroke="none" 
	d="
M868.584595,893.686279 
	C864.203125,891.612915 864.378418,888.548767 865.933167,885.134155 
	C869.931030,876.354065 873.996704,867.604309 877.920898,858.791504 
	C879.376770,855.521973 880.513855,852.110535 881.867798,848.577332 
	C889.862915,847.418030 905.672241,857.216858 907.862610,864.982117 
	C910.030457,872.667480 904.684021,880.731018 896.606750,881.904480 
	C895.148315,882.116333 893.664429,882.152588 891.913208,882.292175 
	C892.607056,885.937134 893.164612,889.376953 893.934998,892.768372 
	C894.695435,896.115784 895.671143,899.414429 896.571594,902.806396 
	C891.725769,905.618774 887.423523,903.891785 886.109070,897.999451 
	C884.988159,892.974731 884.635315,887.778564 883.513306,882.754150 
	C883.075012,880.791199 881.464355,879.090027 880.387695,877.269653 
	C879.768066,877.427673 879.148499,877.585632 878.528870,877.743652 
	C876.382080,882.840881 874.235229,887.938110 871.751038,893.836365 
	C871.502991,893.836365 870.233826,893.836365 868.584595,893.686279 
M891.510193,875.262634 
	C896.756348,874.596436 899.719177,871.783630 899.941467,867.258362 
	C900.174316,862.518311 895.700989,858.634583 888.056702,857.138733 
	C885.916565,861.838806 883.749878,866.597351 881.310669,871.954285 
	C884.810913,873.164429 887.742737,874.178101 891.510193,875.262634 
z"/>
<path fill="#FAFBFA" opacity="1.000000" stroke="none" 
	d="
M1120.753418,878.228149 
	C1123.940308,898.317749 1109.057373,905.982178 1096.202393,907.831665 
	C1090.946045,908.587891 1087.739258,905.682190 1086.030884,900.912720 
	C1083.005371,892.465942 1080.044189,883.995544 1076.948975,875.574585 
	C1076.042847,873.109497 1074.773682,870.778015 1073.381104,867.756042 
	C1081.863647,861.552002 1091.096191,856.180969 1102.723633,858.505798 
	C1113.180908,860.596680 1118.041992,868.266968 1120.753418,878.228149 
M1110.978394,876.762573 
	C1105.651855,864.969482 1096.427734,861.203308 1086.668579,866.722778 
	C1084.446655,867.979431 1083.629395,869.129517 1084.672607,871.838440 
	C1087.898071,880.214294 1090.951172,888.666931 1093.719849,897.203735 
	C1095.049683,901.304565 1097.460815,901.738647 1100.998535,900.723206 
	C1110.996216,897.853455 1114.796631,889.275330 1110.978394,876.762573 
z"/>
<path fill="#F9FBFA" opacity="1.000000" stroke="none" 
	d="
M1192.017822,368.922882 
	C1203.507080,377.544861 1205.502930,387.654602 1197.988770,399.497406 
	C1195.875366,402.828247 1193.259277,406.003204 1190.307617,408.608063 
	C1182.117310,415.836182 1172.874756,416.152069 1164.314575,409.962036 
	C1155.457886,403.557465 1152.610840,394.470490 1157.366577,384.491394 
	C1159.670532,379.656952 1163.113037,375.059784 1166.988770,371.345123 
	C1174.378052,364.262878 1182.545532,363.768585 1192.017822,368.922882 
M1183.898560,403.479645 
	C1189.171143,397.966400 1193.372192,391.875763 1193.944214,383.970612 
	C1194.287354,379.229645 1192.289795,375.542236 1188.235962,373.111969 
	C1184.187256,370.684723 1179.639160,370.953583 1176.685181,374.138947 
	C1172.157715,379.021118 1167.822266,384.413879 1164.853027,390.317993 
	C1161.686890,396.613708 1163.770020,402.570984 1168.439697,405.957581 
	C1172.924683,409.210205 1176.890625,408.680573 1183.898560,403.479645 
z"/>
<path fill="#FAFBFA" opacity="1.000000" stroke="none" 
	d="
M1168.172119,816.962891 
	C1181.698364,816.087097 1195.424316,833.481750 1194.768066,846.040771 
	C1194.066528,859.465210 1177.835815,869.360901 1165.754272,863.451355 
	C1155.880493,858.621643 1149.877930,850.364014 1148.266846,839.458374 
	C1146.708496,828.908447 1155.486694,819.079956 1168.172119,816.962891 
M1155.006348,834.606812 
	C1156.120361,844.320190 1164.637329,854.820862 1173.418579,857.423462 
	C1177.847168,858.736084 1181.651001,857.626892 1184.862183,854.528748 
	C1187.906128,851.592163 1188.547485,847.973816 1187.192261,843.993408 
	C1184.326416,835.576233 1179.060547,829.121399 1170.894043,825.544312 
	C1163.508545,822.309204 1157.017822,825.902649 1155.006348,834.606812 
z"/>
<path fill="#F9FBFA" opacity="1.000000" stroke="none" 
	d="
M1254.670532,537.272095 
	C1250.862671,530.504517 1248.810059,523.733459 1251.379395,516.420410 
	C1252.641235,512.829041 1255.389771,510.328339 1259.419189,511.262329 
	C1263.004028,512.093201 1264.138062,515.045776 1263.621094,518.945312 
	C1259.984497,519.292603 1256.583740,519.920837 1256.340698,524.600281 
	C1256.094360,529.338806 1259.301147,535.569336 1263.163086,537.101318 
	C1267.127808,538.674011 1269.998047,536.929749 1270.846191,533.205933 
	C1271.984619,528.207703 1272.458008,523.028931 1272.865234,517.899780 
	C1273.553101,509.236664 1276.590576,504.226288 1282.253174,503.084106 
	C1288.160400,501.892609 1294.465454,505.811859 1297.839233,513.136292 
	C1300.380737,518.654175 1302.411133,524.528748 1299.624390,530.426392 
	C1298.679077,532.427429 1295.936401,533.946533 1293.680298,534.778931 
	C1292.784668,535.109436 1290.521362,533.255371 1289.703247,531.899475 
	C1288.609619,530.086792 1288.061035,528.046448 1291.281738,526.857910 
	C1295.092041,525.451782 1295.205200,521.627747 1293.842651,518.816284 
	C1292.385376,515.809204 1289.687378,513.295166 1287.088501,511.086365 
	C1286.763794,510.810333 1282.834717,513.379211 1282.161865,515.212036 
	C1280.927856,518.573975 1280.849731,522.366272 1280.346191,525.987000 
	C1280.162842,527.304382 1280.173706,528.647583 1280.039551,529.973206 
	C1279.402100,536.269897 1278.356323,542.442566 1271.378296,544.960754 
	C1265.609619,547.042542 1260.294800,544.521790 1254.670532,537.272095 
z"/>
<path fill="#F9FBFA" opacity="1.000000" stroke="none" 
	d="
M781.744019,467.821167 
	C779.953064,470.458496 778.508728,472.913239 776.746338,475.113190 
	C772.932861,479.873413 768.830261,480.691864 763.583008,477.446350 
	C755.802856,472.634125 748.227661,467.491791 740.489624,462.609772 
	C738.011597,461.046356 735.294128,459.862427 732.108948,458.204346 
	C732.444397,456.985779 732.545288,455.072205 733.434509,453.652405 
	C737.672241,446.886047 742.061340,440.211060 746.553406,433.610352 
	C747.445190,432.299896 748.914368,430.817047 750.316956,430.576111 
	C751.762878,430.327728 753.631592,431.252930 754.927612,432.196960 
	C755.320862,432.483398 754.746826,434.758026 754.068481,435.746307 
	C750.142029,441.465942 746.051880,447.073181 741.777100,453.054352 
	C745.495483,455.505066 748.626526,457.568695 752.150146,459.890991 
	C754.548340,456.335785 756.697693,453.041046 758.969604,449.832977 
	C759.922180,448.487823 760.916992,446.786804 762.289734,446.234192 
	C763.642090,445.689819 765.745911,445.975342 767.021301,446.734528 
	C767.617188,447.089233 767.556519,449.743225 766.898987,450.796936 
	C764.266479,455.015472 761.283264,459.015137 758.001587,463.707977 
	C761.459229,465.892548 764.485107,468.164612 767.840210,469.732147 
	C769.043579,470.294403 771.870605,469.708252 772.537537,468.703918 
	C776.134705,463.286743 779.285950,457.573425 783.098206,451.101044 
	C786.833923,450.673096 789.430176,453.715942 787.282410,458.533234 
	C785.872986,461.694427 783.749878,464.537445 781.744019,467.821167 
z"/>
<path fill="#F9FBFA" opacity="1.000000" stroke="none" 
	d="
M1279.441406,723.405518 
	C1280.575928,720.277649 1282.098511,717.470520 1282.135742,714.643738 
	C1282.163818,712.522766 1280.796509,709.421143 1279.105835,708.510803 
	C1277.420654,707.603577 1274.130493,708.205078 1272.308716,709.355835 
	C1269.271729,711.274048 1266.830688,714.143005 1264.165771,716.640381 
	C1262.346558,718.345093 1260.671631,720.217163 1258.758423,721.804993 
	C1255.116821,724.827026 1251.040283,726.487854 1246.308594,724.568054 
	C1241.567139,722.644226 1239.528442,718.566162 1239.347290,713.889648 
	C1239.014648,705.300415 1241.685181,697.612976 1249.169067,692.804993 
	C1251.074463,691.580811 1254.711670,692.444824 1257.270142,693.249573 
	C1257.955322,693.464966 1257.916382,697.060120 1257.549194,698.977173 
	C1257.415283,699.676086 1255.176270,700.661316 1254.212769,700.391418 
	C1250.216064,699.271912 1247.693359,701.411316 1246.808472,704.482422 
	C1245.876465,707.716492 1246.149780,711.394409 1246.579712,714.791931 
	C1246.628906,715.179932 1251.592773,715.918701 1253.368652,714.903870 
	C1256.608398,713.052429 1259.179810,710.023071 1262.002808,707.455383 
	C1262.986206,706.560913 1263.859131,705.545898 1264.834229,704.641541 
	C1269.384155,700.421326 1274.226440,696.889038 1280.860962,699.757263 
	C1286.266357,702.093933 1289.041016,708.121704 1287.924927,715.912964 
	C1286.825928,723.585815 1283.702759,730.312927 1276.426636,734.145203 
	C1273.128052,735.882568 1269.640381,735.548950 1267.598511,732.249573 
	C1265.695068,729.174255 1266.801392,726.237122 1269.993530,723.882385 
	C1273.169678,727.226562 1276.290039,727.484497 1279.441406,723.405518 
z"/>
<path fill="#FAFBFA" opacity="1.000000" stroke="none" 
	d="
M797.148743,774.747192 
	C797.629028,776.348572 798.520203,777.816833 798.159180,778.845886 
	C797.631348,780.350525 796.205261,781.540100 795.161987,782.863892 
	C794.071106,781.946289 792.664795,781.226868 791.942749,780.077515 
	C788.349243,774.357544 784.935791,768.524536 781.238831,762.364502 
	C777.514038,764.790039 774.369751,766.837585 771.019592,769.019165 
	C773.564148,773.150208 775.963501,776.891724 778.197815,780.729309 
	C779.582581,783.107727 780.777100,785.817505 777.545410,787.630310 
	C774.112000,789.556030 773.501526,786.369019 772.270081,784.317749 
	C770.056824,780.630920 767.736328,777.008423 765.553345,773.507751 
	C764.860352,773.507751 764.444641,773.375977 764.255676,773.527344 
	C760.844543,776.259521 757.460815,779.026001 754.071289,781.785156 
	C757.512573,786.980347 760.904785,792.209412 764.443237,797.337524 
	C765.036804,798.197815 766.263794,798.621094 767.163086,799.222778 
	C764.931885,803.960327 761.162964,805.187927 758.405579,801.540955 
	C753.923950,795.613464 749.843506,789.274658 746.453918,782.668152 
	C744.254395,778.381104 746.893860,774.640564 750.717041,772.119751 
	C757.932312,767.362366 765.232666,762.733215 772.421570,757.936707 
	C775.108459,756.143982 777.582825,754.032593 780.805115,751.568726 
	C787.820251,757.631409 791.541748,766.678101 797.148743,774.747192 
z"/>
<path fill="#F9FBFA" opacity="1.000000" stroke="none" 
	d="
M801.094727,390.072601 
	C799.578491,387.360504 798.169739,385.024658 796.160767,381.693481 
	C797.135864,377.230347 800.159363,375.601837 805.476929,378.528961 
	C815.826050,384.225677 825.979065,390.277344 836.270752,396.080139 
	C838.974487,397.604614 841.888794,398.755615 844.899475,400.168732 
	C845.086365,405.216949 841.432007,407.940308 836.459900,406.001526 
	C834.052063,405.062653 830.827393,402.616730 829.412720,403.412750 
	C825.283569,405.736145 821.552734,409.059448 818.394043,412.634277 
	C817.467957,413.682434 818.813538,416.922791 819.396606,419.083191 
	C820.872864,424.552185 819.652710,426.493439 813.865540,427.543427 
	C809.642883,415.174072 805.422546,402.811462 801.094727,390.072601 
M808.980408,391.523163 
	C810.999268,396.706757 813.018066,401.890381 815.234314,407.580872 
	C818.592346,404.688110 821.433044,402.241058 824.599365,399.513458 
	C820.745056,396.984375 817.365845,394.619690 813.830383,392.517700 
	C812.358337,391.642487 810.553406,391.327148 808.980408,391.523163 
z"/>
<path fill="#F9FBFA" opacity="1.000000" stroke="none" 
	d="
M814.696411,846.330322 
	C813.400085,845.236145 812.214539,844.518738 811.390625,843.506836 
	C808.684692,840.183472 806.028076,840.449585 802.479248,842.530090 
	C796.922852,845.787781 794.125244,844.451477 792.786011,838.924438 
	C804.490356,832.618835 816.182251,826.423889 827.746033,819.998474 
	C829.940674,818.779053 831.627625,816.645996 834.287048,814.276855 
	C838.784302,814.523743 840.949219,817.178040 839.086792,822.514832 
	C835.152893,833.787109 830.832336,844.923950 826.777161,856.154846 
	C825.777710,858.922852 825.187500,861.838562 824.358215,864.872620 
	C818.876831,865.881653 815.478516,862.244873 817.707336,856.500732 
	C819.409180,852.114990 819.257812,848.963623 814.696411,846.330322 
M826.151611,834.715576 
	C827.090942,832.569397 828.030334,830.423218 828.969666,828.277039 
	C828.657654,828.086731 828.345581,827.896423 828.033569,827.706055 
	C822.965942,830.736572 817.898315,833.767090 812.308716,837.109802 
	C815.699402,839.958618 818.542847,842.347595 821.635925,844.946350 
	C823.195251,841.467834 824.550537,838.444397 826.151611,834.715576 
z"/>
<path fill="#FAFBFA" opacity="1.000000" stroke="none" 
	d="
M1227.361572,465.519257 
	C1231.230957,467.989868 1234.850708,470.177246 1238.892578,472.619751 
	C1238.033325,475.739807 1235.295532,476.259735 1232.128174,475.761566 
	C1217.710693,473.494202 1209.780518,455.840820 1217.778809,443.643585 
	C1222.141235,436.990967 1228.353027,432.556549 1235.985352,430.429108 
	C1248.248047,427.010986 1261.688965,435.647278 1263.887085,448.127289 
	C1263.944824,448.454773 1263.974854,448.787933 1264.003052,449.119720 
	C1264.318237,452.821747 1264.015991,456.638580 1259.827271,457.665985 
	C1255.778076,458.659241 1254.058594,455.397034 1252.648438,451.819489 
	C1255.273193,449.117706 1258.136108,446.287750 1255.305542,442.044495 
	C1252.456909,437.774048 1248.202515,436.409027 1243.530518,437.195862 
	C1235.418335,438.562073 1228.975464,442.932159 1224.774536,450.020325 
	C1221.522339,455.507782 1223.478760,460.597565 1227.361572,465.519257 
z"/>
<path fill="#F9FBFA" opacity="1.000000" stroke="none" 
	d="
M1248.999268,794.937012 
	C1239.300171,807.124756 1226.100708,807.473450 1213.735596,796.180664 
	C1202.833984,786.224426 1202.419800,771.630249 1213.114624,762.006653 
	C1215.587158,759.781677 1219.015015,758.259460 1222.263672,757.415833 
	C1223.759888,757.027100 1226.928101,758.666321 1227.454834,760.085144 
	C1228.093872,761.806580 1227.222290,764.598267 1226.062256,766.275330 
	C1225.428467,767.191772 1222.687134,767.297058 1221.178711,766.838562 
	C1216.927368,765.546631 1212.854980,767.667786 1212.148804,772.655090 
	C1211.748901,775.479431 1212.003052,778.822388 1213.185059,781.363037 
	C1216.437500,788.354248 1222.296143,792.886353 1229.631348,794.887634 
	C1238.039673,797.181519 1245.995483,790.394348 1246.864014,780.706055 
	C1247.023560,778.925842 1246.886719,777.119019 1246.886719,775.255493 
	C1254.172607,776.538147 1254.963989,784.663330 1248.999268,794.937012 
z"/>
<path fill="#F9FBFA" opacity="1.000000" stroke="none" 
	d="
M722.545898,538.234375 
	C714.811157,535.841064 707.455811,533.568604 699.028564,530.965027 
	C699.306458,529.710632 699.100647,526.693481 700.481812,525.474792 
	C701.969238,524.162292 705.177368,523.722290 707.229431,524.312012 
	C716.630920,527.013855 725.944519,530.055603 735.177734,533.294373 
	C739.681824,534.874329 742.156555,533.809204 743.171814,529.127258 
	C744.094666,524.871155 745.181335,520.650513 746.294800,516.000732 
	C749.908691,515.375000 752.901062,517.770264 751.815308,522.276550 
	C750.426514,528.040405 748.389282,533.709045 746.029846,539.158264 
	C744.209045,543.363403 740.201660,543.767151 736.191589,542.615967 
	C731.729492,541.335083 727.344116,539.786987 722.545898,538.234375 
z"/>
<path fill="#F9FBFA" opacity="1.000000" stroke="none" 
	d="
M729.007812,709.817871 
	C726.903015,710.527039 724.766968,710.688171 723.566040,711.831543 
	C722.274658,713.060852 720.839539,715.511841 721.249146,716.906372 
	C722.660278,721.710571 724.849548,726.286194 726.886292,731.303345 
	C723.998169,733.847839 720.542480,733.611450 718.699890,729.207642 
	C716.471741,723.882385 714.741211,718.268860 713.531372,712.622437 
	C712.528748,707.943359 715.638184,705.230469 719.856079,703.842285 
	C729.001038,700.832581 738.182068,697.930725 747.301270,694.845581 
	C749.893127,693.968750 752.322754,692.612366 755.802490,691.033020 
	C756.510376,692.887024 758.319458,695.269165 757.869446,697.094421 
	C757.398865,699.002991 755.027283,701.105469 753.014648,701.854065 
	C745.241455,704.745056 737.279785,707.129211 729.007812,709.817871 
z"/>
<path fill="#FAFBFA" opacity="1.000000" stroke="none" 
	d="
M985.176147,483.257812 
	C984.310181,484.525543 983.232483,485.453217 983.128113,486.479828 
	C982.410645,493.536926 977.891235,493.732574 972.461304,492.407837 
	C968.166687,481.409302 967.829895,481.075409 957.280640,477.546936 
	C957.280640,474.794891 957.280640,472.004700 957.280640,468.694336 
	C965.375427,468.404907 971.323364,472.038300 976.527527,477.955505 
	C981.746399,472.555237 987.552002,468.422913 995.775635,468.660858 
	C995.775635,471.737976 995.775635,474.656525 995.775635,476.865295 
	C992.124146,479.014496 988.769470,480.989014 985.176147,483.257812 
z"/>
<path fill="#578669" opacity="1.000000" stroke="none" 
	d="
M995.180481,706.139526 
	C1005.716064,708.298279 1014.178711,704.856201 1021.911865,698.000061 
	C1024.119995,700.107483 1026.255127,702.145325 1028.360229,704.154358 
	C1017.115845,720.375183 986.622620,720.514465 973.506531,704.327576 
	C975.535522,702.253540 977.592651,700.150757 979.013306,698.698547 
	C984.748413,701.380249 989.759644,703.723450 995.180481,706.139526 
z"/>
<path fill="#578669" opacity="1.000000" stroke="none" 
	d="
M1070.525635,629.595886 
	C1070.771606,631.040649 1071.280151,632.781372 1070.677734,633.354736 
	C1054.561890,648.692200 1029.164429,645.652039 1017.480530,631.634583 
	C1019.578064,629.535950 1021.668579,627.444275 1023.988464,625.123230 
	C1029.846436,630.421814 1036.563843,633.843872 1044.582764,633.844727 
	C1052.611572,633.845520 1059.480347,630.784973 1065.602661,625.001709 
	C1067.190796,626.480408 1068.730713,627.914124 1070.525635,629.595886 
z"/>
<path fill="#578669" opacity="1.000000" stroke="none" 
	d="
M943.075439,630.037842 
	C956.074097,636.720825 967.492676,634.281006 978.404785,624.836853 
	C980.368713,627.224731 982.250305,629.512451 984.183411,631.862854 
	C972.433167,647.406311 942.682007,647.510254 929.735291,631.318909 
	C931.846069,629.302368 933.981079,627.262695 936.165161,625.176086 
	C938.475342,626.823914 940.605957,628.343628 943.075439,630.037842 
z"/>
<path fill="#578669" opacity="1.000000" stroke="none" 
	d="
M1093.068237,604.771240 
	C1089.793823,605.167175 1088.246460,604.270386 1088.587402,601.053162 
	C1088.789673,599.145203 1088.624512,597.198242 1088.624512,595.111328 
	C1091.976929,595.111328 1094.745728,595.111328 1097.887451,595.111328 
	C1097.887451,598.197876 1097.887451,601.201294 1097.887451,604.521790 
	C1096.358643,604.608643 1094.925781,604.690063 1093.068237,604.771240 
z"/>
<path fill="#578669" opacity="1.000000" stroke="none" 
	d="
M1058.402832,595.145996 
	C1059.033569,598.173462 1059.255127,601.064209 1059.509155,604.378662 
	C1056.130981,604.378662 1053.276978,604.378662 1050.066895,604.378662 
	C1050.066895,601.410950 1050.066895,598.377441 1050.066895,595.009216 
	C1052.786621,595.009216 1055.390137,595.009216 1058.402832,595.145996 
z"/>
<path fill="#578669" opacity="1.000000" stroke="none" 
	d="
M1069.149292,596.275146 
	C1072.218140,595.429260 1075.222412,595.040771 1078.612793,594.602417 
	C1078.612793,598.219543 1078.612793,601.120667 1078.612793,604.401611 
	C1075.676147,604.401611 1072.775024,604.401611 1069.084717,604.401611 
	C1069.084717,601.884338 1069.084717,599.308472 1069.149292,596.275146 
z"/>
<path fill="#538266" opacity="1.000000" stroke="none" 
	d="
M1192.559204,1053.344482 
	C1209.671875,1063.845093 1217.486694,1079.615845 1219.853760,1098.512695 
	C1221.311401,1110.149292 1220.948853,1121.780273 1218.021729,1133.218872 
	C1210.635376,1162.082397 1186.832275,1178.609497 1157.196899,1175.489502 
	C1155.541870,1175.315308 1153.881470,1175.174316 1152.234863,1174.939331 
	C1143.697021,1173.720947 1139.962036,1169.544678 1139.959961,1160.889282 
	C1139.951416,1125.255981 1140.012939,1089.622559 1140.013794,1053.989258 
	C1140.013916,1051.741699 1139.919067,1049.871338 1142.832153,1049.109619 
	C1159.800659,1044.673218 1176.376465,1044.440063 1192.559204,1053.344482 
z"/>
<path fill="#548467" opacity="1.000000" stroke="none" 
	d="
M789.751221,1080.679932 
	C787.214172,1097.302002 778.932922,1105.607056 762.523621,1107.033203 
	C753.665833,1107.803101 744.686157,1107.170166 735.441040,1107.170166 
	C735.441040,1088.127930 735.441040,1068.949463 735.441040,1048.644653 
	C746.105347,1049.269043 756.650330,1048.917725 766.819214,1050.705811 
	C782.584167,1053.477905 789.833618,1063.650879 789.751221,1080.679932 
z"/>
<path fill="#538366" opacity="1.000000" stroke="none" 
	d="
M1395.728638,1135.455933 
	C1394.097168,1141.479858 1392.964233,1147.232056 1390.915894,1152.637207 
	C1378.537964,1185.298462 1340.850708,1181.598633 1325.776855,1162.197266 
	C1317.019043,1150.925171 1312.546509,1138.099365 1310.575195,1124.235229 
	C1308.190186,1107.461182 1307.847412,1090.744385 1312.921753,1074.308472 
	C1313.558105,1072.247803 1314.333984,1070.226562 1315.116943,1068.215088 
	C1327.599976,1036.143555 1365.532349,1040.561401 1379.807373,1059.301514 
	C1389.655518,1072.229858 1394.537476,1086.873535 1395.797241,1102.661987 
	C1396.652466,1113.381104 1395.859863,1124.231934 1395.728638,1135.455933 
z"/>
<path fill="#578669" opacity="1.000000" stroke="none" 
	d="
M605.153381,1076.894165 
	C605.525391,1076.163330 605.795776,1075.751465 606.555176,1074.594482 
	C613.208679,1096.733032 619.687317,1118.289429 626.312317,1140.333130 
	C611.889099,1140.333130 598.074646,1140.333130 583.575073,1140.333130 
	C590.852051,1118.946045 597.951904,1098.079590 605.153381,1076.894165 
z"/>
<path fill="#578669" opacity="1.000000" stroke="none" 
	d="
M876.746155,355.791626 
	C873.645752,351.247894 870.903809,346.584045 867.727295,341.181122 
	C871.288696,339.778168 873.928101,338.507507 876.702148,337.699219 
	C880.974548,336.454285 884.142029,338.147888 886.067810,342.080902 
	C888.021179,346.070526 887.183716,349.560120 883.603333,352.118683 
	C881.609131,353.543732 879.281738,354.502533 876.746155,355.791626 
z"/>
<path fill="#548467" opacity="1.000000" stroke="none" 
	d="
M1111.855469,332.098694 
	C1117.952026,339.150879 1118.509521,346.416321 1113.905884,355.413635 
	C1110.426270,362.214172 1104.862305,365.652313 1097.949463,365.022461 
	C1096.004395,364.845215 1094.072021,364.200470 1092.205322,363.561432 
	C1088.602661,362.328217 1087.373291,360.187836 1088.910522,356.282471 
	C1092.005859,348.418945 1095.050537,340.503143 1097.456787,332.412750 
	C1098.912842,327.517334 1101.466797,326.917664 1105.462524,328.643494 
	C1107.569946,329.553741 1109.542603,330.776093 1111.855469,332.098694 
z"/>
<path fill="#578669" opacity="1.000000" stroke="none" 
	d="
M891.092407,875.227173 
	C887.742737,874.178101 884.810913,873.164429 881.310669,871.954285 
	C883.749878,866.597351 885.916565,861.838806 888.056702,857.138733 
	C895.700989,858.634583 900.174316,862.518311 899.941467,867.258362 
	C899.719177,871.783630 896.756348,874.596436 891.092407,875.227173 
z"/>
<path fill="#548467" opacity="1.000000" stroke="none" 
	d="
M1111.104126,877.132324 
	C1114.796631,889.275330 1110.996216,897.853455 1100.998535,900.723206 
	C1097.460815,901.738647 1095.049683,901.304565 1093.719849,897.203735 
	C1090.951172,888.666931 1087.898071,880.214294 1084.672607,871.838440 
	C1083.629395,869.129517 1084.446655,867.979431 1086.668579,866.722778 
	C1096.427734,861.203308 1105.651855,864.969482 1111.104126,877.132324 
z"/>
<path fill="#548467" opacity="1.000000" stroke="none" 
	d="
M1183.627930,403.722473 
	C1176.890625,408.680573 1172.924683,409.210205 1168.439697,405.957581 
	C1163.770020,402.570984 1161.686890,396.613708 1164.853027,390.317993 
	C1167.822266,384.413879 1172.157715,379.021118 1176.685181,374.138947 
	C1179.639160,370.953583 1184.187256,370.684723 1188.235962,373.111969 
	C1192.289795,375.542236 1194.287354,379.229645 1193.944214,383.970612 
	C1193.372192,391.875763 1189.171143,397.966400 1183.627930,403.722473 
z"/>
<path fill="#548467" opacity="1.000000" stroke="none" 
	d="
M1155.012207,834.201782 
	C1157.017822,825.902649 1163.508545,822.309204 1170.894043,825.544312 
	C1179.060547,829.121399 1184.326416,835.576233 1187.192261,843.993408 
	C1188.547485,847.973816 1187.906128,851.592163 1184.862183,854.528748 
	C1181.651001,857.626892 1177.847168,858.736084 1173.418579,857.423462 
	C1164.637329,854.820862 1156.120361,844.320190 1155.012207,834.201782 
z"/>
<path fill="#578669" opacity="1.000000" stroke="none" 
	d="
M808.940125,391.140198 
	C810.553406,391.327148 812.358337,391.642487 813.830383,392.517700 
	C817.365845,394.619690 820.745056,396.984375 824.599365,399.513458 
	C821.433044,402.241058 818.592346,404.688110 815.234314,407.580872 
	C813.018066,401.890381 810.999268,396.706757 808.940125,391.140198 
z"/>
<path fill="#578669" opacity="1.000000" stroke="none" 
	d="
M826.028687,835.068237 
	C824.550537,838.444397 823.195251,841.467834 821.635925,844.946350 
	C818.542847,842.347595 815.699402,839.958618 812.308716,837.109802 
	C817.898315,833.767090 822.965942,830.736572 828.033569,827.706055 
	C828.345581,827.896423 828.657654,828.086731 828.969666,828.277039 
	C828.030334,830.423218 827.090942,832.569397 826.028687,835.068237 
z"/>
</svg>